<?xml version="1.0" standalone="no"?>
<!DOCTYPE svg PUBLIC "-//W3C//DTD SVG 20010904//EN"
 "http://www.w3.org/TR/2001/REC-SVG-20010904/DTD/svg10.dtd">
<svg version="1.0" xmlns="http://www.w3.org/2000/svg"
 width="330.000000pt" height="327.000000pt" viewBox="0 0 330.000000 327.000000"
 preserveAspectRatio="xMidYMid meet">

<g transform="translate(0.000000,327.000000) scale(0.100000,-0.100000)"
fill="#000000" stroke="none">
<path d="M1555 3203 c-383 -30 -751 -198 -1001 -455 -248 -255 -379 -502 -445
-839 -31 -162 -31 -416 0 -579 42 -216 139 -457 238 -592 88 -121 234 -288
296 -340 118 -98 299 -204 463 -271 75 -30 234 -72 335 -88 106 -16 449 -6
549 16 494 109 911 436 1120 878 179 379 207 785 79 1177 -38 118 -112 275
-174 372 -311 480 -892 767 -1460 721z m207 -538 l-3 -185 -94 0 -95 0 0 185
0 185 98 0 97 0 -3 -185z m-762 -240 l125 -125 -68 -67 -67 -68 -127 127 -128
128 65 65 c35 36 67 65 70 65 3 0 61 -56 130 -125z m1498 102 l22 -23 -128
-127 -128 -128 -24 26 -24 26 124 124 c69 69 127 125 131 125 3 0 15 -10 27
-23z m-678 -167 c111 -23 253 -88 321 -148 l44 -39 -172 -179 c-94 -99 -333
-340 -531 -537 l-359 -359 -37 44 c-146 169 -209 447 -151 661 40 150 96 245
211 359 181 181 419 251 674 198z m451 -566 c220 -89 354 -287 353 -524 0 -52
-6 -115 -13 -140 -102 -365 -512 -539 -830 -353 -61 36 -153 124 -196 189 -38
57 -82 161 -72 171 4 3 22 -8 41 -25 144 -126 363 -147 532 -52 69 40 169 147
198 212 62 140 60 280 -5 410 -16 31 -42 73 -59 91 -49 56 -42 59 51 21z
m-1461 -169 l0 -94 -185 -3 -185 -3 0 98 0 97 185 0 185 0 0 -95z m210 -580
l24 -26 -127 -127 -127 -127 -27 28 -28 27 125 125 c69 69 127 125 131 125 3
0 16 -11 29 -25z"/>
</g>
</svg>
